<svg width="67" height="101" viewBox="0 0 67 101" fill="none" xmlns="http://www.w3.org/2000/svg">
<g filter="url(#filter0_d_111_68)">
<g filter="url(#filter1_d_111_68)">
<ellipse cx="10.3529" cy="16.604" rx="10.3529" ry="16.604" transform="matrix(0.805012 0.593258 -0.560482 0.828167 47.3316 24.8386)" fill="white"/>
</g>
<g filter="url(#filter2_d_111_68)">
<ellipse cx="29.2494" cy="42" rx="17.2494" ry="30" fill="white"/>
</g>
<path d="M8.42151 56.3721C8.19769 54.5815 9.59385 53 11.3983 53H54.6017C56.4061 53 57.8023 54.5815 57.5785 56.3721L53.3285 90.3721C53.1408 91.8734 51.8646 93 50.3517 93H15.6483C14.1354 93 12.8592 91.8734 12.6715 90.3721L8.42151 56.3721Z" fill="#1E1E1E"/>
<path d="M14 64H52" stroke="white" stroke-opacity="0.7" stroke-width="2" stroke-linecap="round"/>
<g filter="url(#filter3_d_111_68)">
<path d="M22.5117 4.21907C24.8622 3.05401 27.7121 4.01497 28.8771 6.36542C31.2276 5.20036 34.0775 6.16131 35.2425 8.51177C36.4076 10.8622 35.4466 13.7121 33.0962 14.8772C34.2612 17.2276 33.3003 20.0775 30.9498 21.2425C28.5994 22.4076 25.7495 21.4466 24.5844 19.0962C22.234 20.2613 19.3841 19.3003 18.219 16.9498C17.054 14.5994 18.0149 11.7495 20.3654 10.5845C19.2003 8.23401 20.1613 5.38413 22.5117 4.21907Z" fill="#1E1E1E"/>
</g>
</g>
<defs>
<filter id="filter0_d_111_68" x="0.397903" y="3.72388" width="58.4544" height="97.2761" filterUnits="userSpaceOnUse" color-interpolation-filters="sRGB">
<feFlood flood-opacity="0" result="BackgroundImageFix"/>
<feColorMatrix in="SourceAlpha" type="matrix" values="0 0 0 0 0 0 0 0 0 0 0 0 0 0 0 0 0 0 127 0" result="hardAlpha"/>
<feOffset dx="-4" dy="4"/>
<feGaussianBlur stdDeviation="2"/>
<feComposite in2="hardAlpha" operator="out"/>
<feColorMatrix type="matrix" values="0 0 0 0 0.117647 0 0 0 0 0.117647 0 0 0 0 0.117647 0 0 0 0.25 0"/>
<feBlend mode="normal" in2="BackgroundImageFix" result="effect1_dropShadow_111_68"/>
<feBlend mode="normal" in="SourceGraphic" in2="effect1_dropShadow_111_68" result="shape"/>
</filter>
<filter id="filter1_d_111_68" x="33.8668" y="25.6674" width="32.9855" height="38.128" filterUnits="userSpaceOnUse" color-interpolation-filters="sRGB">
<feFlood flood-opacity="0" result="BackgroundImageFix"/>
<feColorMatrix in="SourceAlpha" type="matrix" values="0 0 0 0 0 0 0 0 0 0 0 0 0 0 0 0 0 0 127 0" result="hardAlpha"/>
<feOffset dx="4"/>
<feGaussianBlur stdDeviation="2"/>
<feComposite in2="hardAlpha" operator="out"/>
<feColorMatrix type="matrix" values="0 0 0 0 0 0 0 0 0 0 0 0 0 0 0 0 0 0 0.25 0"/>
<feBlend mode="normal" in2="BackgroundImageFix" result="effect1_dropShadow_111_68"/>
<feBlend mode="normal" in="SourceGraphic" in2="effect1_dropShadow_111_68" result="shape"/>
</filter>
<filter id="filter2_d_111_68" x="12" y="8" width="42.4988" height="68" filterUnits="userSpaceOnUse" color-interpolation-filters="sRGB">
<feFlood flood-opacity="0" result="BackgroundImageFix"/>
<feColorMatrix in="SourceAlpha" type="matrix" values="0 0 0 0 0 0 0 0 0 0 0 0 0 0 0 0 0 0 127 0" result="hardAlpha"/>
<feOffset dx="4"/>
<feGaussianBlur stdDeviation="2"/>
<feComposite in2="hardAlpha" operator="out"/>
<feColorMatrix type="matrix" values="0 0 0 0 0.0293802 0 0 0 0 0.0293802 0 0 0 0 0.0293802 0 0 0 0.25 0"/>
<feBlend mode="normal" in2="BackgroundImageFix" result="effect1_dropShadow_111_68"/>
<feBlend mode="normal" in="SourceGraphic" in2="effect1_dropShadow_111_68" result="shape"/>
</filter>
<filter id="filter3_d_111_68" x="13.7239" y="1.72388" width="26.0138" height="26.0139" filterUnits="userSpaceOnUse" color-interpolation-filters="sRGB">
<feFlood flood-opacity="0" result="BackgroundImageFix"/>
<feColorMatrix in="SourceAlpha" type="matrix" values="0 0 0 0 0 0 0 0 0 0 0 0 0 0 0 0 0 0 127 0" result="hardAlpha"/>
<feOffset dy="2"/>
<feGaussianBlur stdDeviation="2"/>
<feComposite in2="hardAlpha" operator="out"/>
<feColorMatrix type="matrix" values="0 0 0 0 0 0 0 0 0 0 0 0 0 0 0 0 0 0 1 0"/>
<feBlend mode="normal" in2="BackgroundImageFix" result="effect1_dropShadow_111_68"/>
<feBlend mode="normal" in="SourceGraphic" in2="effect1_dropShadow_111_68" result="shape"/>
</filter>
</defs>
</svg>
